<?xml version="1.0" standalone="no"?>
<!DOCTYPE svg PUBLIC "-//W3C//DTD SVG 20010904//EN"
 "http://www.w3.org/TR/2001/REC-SVG-20010904/DTD/svg10.dtd">
<svg version="1.0" xmlns="http://www.w3.org/2000/svg"
 width="340.000000pt" height="286.000000pt" viewBox="0 0 340.000000 286.000000"
 preserveAspectRatio="xMidYMid meet">
<metadata>
Created by potrace 1.16, written by Peter Selinger 2001-2019
</metadata>
<g transform="translate(0.000000,286.000000) scale(0.100000,-0.100000)"
fill="#000000" stroke="none">
<path d="M2499 2683 c-42 -65 -46 -68 -87 -71 -40 -3 -45 -7 -59 -40 -8 -20
-15 -48 -15 -62 0 -14 -19 -155 -44 -314 -24 -159 -44 -291 -44 -293 0 -1 -15
-3 -34 -3 -30 0 -54 17 -188 137 l-154 138 17 46 c10 26 15 49 12 53 -4 3 -22
6 -41 6 -32 0 -34 2 -27 27 3 15 7 32 8 38 1 5 -20 11 -46 13 -45 3 -47 5 -45
30 l3 27 -73 -4 -72 -3 -93 83 c-50 46 -102 92 -115 103 -18 16 -53 23 -195
37 -129 13 -175 14 -183 5 -21 -21 -460 -561 -481 -591 -14 -20 -41 -115 -79
-278 l-58 -249 27 -190 c26 -175 27 -192 12 -211 -72 -99 -108 -178 -87 -199
7 -7 32 6 90 51 l79 61 28 133 c15 72 29 133 30 135 2 2 26 -24 54 -58 58 -70
64 -104 33 -187 -20 -53 -17 -96 13 -193 9 -30 33 -146 53 -258 33 -185 35
-207 23 -253 -12 -44 -11 -52 5 -76 41 -63 43 -64 150 -61 l98 3 -83 69 -83
68 6 157 c11 260 25 381 49 431 19 39 42 59 167 144 80 54 169 109 199 123 51
24 59 25 195 21 165 -6 230 -25 288 -85 l37 -38 2 -395 c1 -217 -2 -407 -6
-423 -4 -16 -3 -39 4 -55 l11 -27 138 3 137 4 -97 49 -98 49 0 58 c0 31 29
218 64 414 l64 358 189 212 c104 117 241 273 306 346 l117 132 0 263 0 262
190 63 c105 35 190 66 190 69 0 3 -18 27 -41 54 l-41 49 -98 0 c-102 0 -134 9
-172 49 -11 12 -32 24 -48 28 -25 4 -29 11 -32 41 -2 19 -8 37 -14 39 -6 2
-31 -27 -55 -64z"/>
</g>
</svg>
